<?xml version="1.0" standalone="no"?><!DOCTYPE svg PUBLIC "-//W3C//DTD SVG 1.1//EN" "http://www.w3.org/Graphics/SVG/1.1/DTD/svg11.dtd"><svg t="1670591473281" class="icon" viewBox="0 0 1024 1024" version="1.1" xmlns="http://www.w3.org/2000/svg" p-id="9063" xmlns:xlink="http://www.w3.org/1999/xlink" width="200" height="200"><path d="M820.606405 312.397003h-40.223038a269.505844 269.505844 0 1 0-538.988704 0h-40.223038a309.728882 309.728882 0 1 1 619.43478 0zM842.958921 1024H178.796124A97.68452 97.68452 0 0 1 81.203542 926.407418V467.083313a97.68452 97.68452 0 0 1 97.592582-97.592582h664.162797a97.68452 97.68452 0 0 1 97.592582 97.592582v459.324105a97.68452 97.68452 0 0 1-97.592582 97.592582zM178.796124 409.713769A57.461482 57.461482 0 0 0 121.42658 467.083313v459.324105a57.461482 57.461482 0 0 0 57.369544 57.369544h664.162797a57.461482 57.461482 0 0 0 57.369544-57.369544V467.083313a57.461482 57.461482 0 0 0-57.369544-57.369544z" p-id="9064"></path><path d="M510.877523 647.259537m-82.100966 0a82.100966 82.100966 0 1 0 164.201932 0 82.100966 82.100966 0 1 0-164.201932 0Z" p-id="9065"></path><path d="M484.916425 637.778393m26.37482 0l0 0q26.37482 0 26.374821 26.37482l0 137.804127q0 26.37482-26.374821 26.37482l0 0q-26.37482 0-26.37482-26.37482l0-137.804127q0-26.37482 26.37482-26.37482Z" p-id="9066"></path></svg>