<?xml version="1.0" standalone="no"?><!DOCTYPE svg PUBLIC "-//W3C//DTD SVG 1.1//EN" "http://www.w3.org/Graphics/SVG/1.1/DTD/svg11.dtd"><svg t="1670591821774" class="icon" viewBox="0 0 1024 1024" version="1.1" xmlns="http://www.w3.org/2000/svg" p-id="15103" xmlns:xlink="http://www.w3.org/1999/xlink" width="200" height="200"><path d="M414.273 1024a19.761 19.761 0 0 1-19.741-20.488l8.762-237.514a19.75 19.75 0 0 1 4.203-11.471l503.44-641.372-822.36 475.187 249.41 129.274c9.688 5.022 13.472 16.947 8.45 26.635-5.023 9.688-16.946 13.472-26.635 8.45L38.362 606.825a19.758 19.758 0 1 1-0.793-34.65L969.914 33.436a19.76 19.76 0 0 1 29.505 19.455L890.247 965.588a19.759 19.759 0 0 1-28.849 15.125l-252.05-133.144-181.52 171.053a19.754 19.754 0 0 1-13.555 5.378z m28.276-250.126l-6.748 182.936 156.73-147.693a19.761 19.761 0 0 1 22.781-3.091l239.112 126.31 96.41-806.007L442.55 773.874z" p-id="15104"></path></svg>